<?xml version="1.0" standalone="no"?>
<!DOCTYPE svg PUBLIC "-//W3C//DTD SVG 20010904//EN"
 "http://www.w3.org/TR/2001/REC-SVG-20010904/DTD/svg10.dtd">
<svg version="1.0" xmlns="http://www.w3.org/2000/svg"
 width="695.000000pt" height="561.000000pt" viewBox="0 0 695.000000 561.000000"
 preserveAspectRatio="xMidYMid meet">

<g transform="translate(0.000000,561.000000) scale(0.100000,-0.100000)"
fill="#000000" stroke="none">
<path d="M3077 4982 c-20 -22 -22 -83 -5 -100 14 -14 78 -16 78 -3 0 5 -9 7
-20 4 -29 -8 -50 15 -50 54 0 26 5 36 23 42 12 5 28 6 36 3 9 -3 12 -1 7 6
-11 18 -51 14 -69 -6z"/>
<path d="M3658 4978 c-3 -7 -3 -34 0 -60 4 -45 6 -48 31 -47 16 1 20 3 9 6
-21 5 -25 69 -6 75 9 3 8 9 -4 21 -20 20 -25 21 -30 5z"/>
<path d="M3181 4956 c-7 -8 -11 -30 -9 -48 3 -28 7 -33 33 -36 47 -6 73 48 39
82 -19 20 -48 21 -63 2z m54 -27 c8 -24 -16 -55 -34 -45 -6 4 -11 20 -11 37 0
22 5 29 19 29 11 0 23 -9 26 -21z"/>
<path d="M3280 4918 c0 -57 17 -65 22 -10 2 25 8 37 18 37 10 0 16 -12 18 -37
4 -51 22 -49 22 2 0 29 4 40 15 40 11 0 15 -11 15 -40 0 -29 4 -40 15 -40 13
0 15 8 10 43 -4 23 -9 44 -12 47 -2 3 -31 5 -64 5 l-59 0 0 -47z"/>
<path d="M3445 4961 c-10 -9 -5 -121 5 -121 6 0 10 7 10 15 0 9 9 15 25 15 34
0 53 39 37 75 -9 20 -18 25 -42 23 -17 -1 -33 -4 -35 -7z m60 -30 c8 -26 -5
-53 -24 -49 -29 6 -27 68 3 68 8 0 17 -8 21 -19z"/>
<path d="M3552 4925 l3 -50 38 -2 37 -1 0 43 c0 58 -18 68 -22 13 -4 -55 -31
-61 -36 -8 -6 58 -24 62 -20 5z"/>
<path d="M3730 4955 c-29 -35 -14 -85 25 -85 13 0 26 4 29 8 3 5 -4 8 -16 8
-12 -1 -23 5 -25 12 -3 8 6 12 26 12 33 0 39 14 17 43 -16 21 -39 22 -56 2z
m43 -20 c1 -5 -6 -11 -15 -13 -11 -2 -18 3 -18 13 0 17 30 18 33 0z"/>
<path d="M3820 4918 c0 -27 5 -48 10 -48 6 0 10 16 10 35 0 22 6 38 15 41 24
9 17 22 -10 20 -23 -1 -25 -5 -25 -48z"/>
<path d="M3350 4780 c0 -5 5 -10 10 -10 6 0 10 5 10 10 0 6 -4 10 -10 10 -5 0
-10 -4 -10 -10z"/>
<path d="M3183 4733 c-4 -11 3 -24 23 -40 l29 -23 -27 0 c-16 0 -28 -4 -28
-10 0 -16 46 -11 61 6 12 14 10 19 -14 38 -32 26 -35 40 -6 31 15 -5 19 -4 15
4 -11 17 -46 13 -53 -6z"/>
<path d="M3272 4738 c-28 -28 -5 -88 33 -88 14 0 25 5 25 10 0 6 -9 10 -20 10
-11 0 -23 7 -27 16 -8 21 10 49 31 48 9 -1 16 2 16 7 0 13 -44 11 -58 -3z"/>
<path d="M3350 4700 c0 -27 5 -50 10 -50 6 0 10 23 10 50 0 28 -4 50 -10 50
-5 0 -10 -22 -10 -50z"/>
<path d="M3401 4731 c-14 -26 -14 -54 1 -69 15 -15 54 -16 63 -2 3 6 -5 10
-19 10 -14 0 -28 5 -31 10 -4 6 7 10 25 10 28 0 31 3 28 28 -4 35 -51 45 -67
13z m47 -9 c2 -7 -5 -12 -17 -12 -14 0 -19 5 -14 15 6 17 25 15 31 -3z"/>
<path d="M3496 4740 c-3 -4 -1 -62 3 -83 3 -22 18 6 16 33 -2 28 19 60 31 48
2 -3 6 -21 8 -39 1 -19 7 -36 12 -39 12 -6 18 35 10 66 -6 21 -12 24 -42 22
-19 -1 -37 -5 -38 -8z"/>
<path d="M3611 4736 c-16 -20 -10 -66 10 -79 10 -6 24 -7 35 -2 17 8 15 9 -9
13 -25 3 -28 7 -25 35 2 27 7 32 26 30 13 -2 21 1 17 7 -9 15 -41 12 -54 -4z"/>
<path d="M3688 4726 c-16 -36 3 -76 36 -76 14 0 28 5 32 12 5 7 0 9 -14 6 -12
-4 -26 0 -33 8 -11 14 -1 18 39 17 8 -1 12 9 10 26 -2 20 -9 27 -30 29 -22 3
-30 -2 -40 -22z m50 -4 c2 -7 -5 -12 -17 -12 -14 0 -19 5 -14 15 6 17 25 15
31 -3z"/>
<path d="M2450 4670 c0 -73 17 -98 22 -33 2 27 8 39 21 41 14 3 17 -4 17 -37
0 -23 5 -41 10 -41 6 0 10 17 10 39 0 41 -20 67 -45 57 -11 -4 -15 1 -15 19 0
14 -4 25 -10 25 -6 0 -10 -30 -10 -70z"/>
<path d="M4940 4730 c0 -5 5 -10 10 -10 6 0 10 5 10 10 0 6 -4 10 -10 10 -5 0
-10 -4 -10 -10z"/>
<path d="M1970 4715 c-16 -20 -6 -43 25 -57 38 -17 28 -43 -15 -42 -31 2 -33
1 -13 -8 62 -29 101 31 42 66 -34 20 -34 42 0 39 13 -2 20 1 16 7 -9 15 -41
12 -55 -5z"/>
<path d="M4188 4723 c-2 -5 -5 -34 -7 -65 l-2 -58 43 1 c30 2 35 3 16 6 -36 6
-40 49 -5 56 l22 4 -22 8 c-33 11 -30 43 5 48 22 3 20 4 -10 6 -20 0 -38 -2
-40 -6z"/>
<path d="M2065 4692 c-10 -10 -5 -122 5 -122 6 0 10 8 10 19 0 14 6 17 24 14
17 -4 27 1 35 16 11 20 6 69 -8 73 -18 4 -61 4 -66 0z m60 -23 c12 -19 -4 -61
-23 -57 -30 6 -28 68 2 68 8 0 18 -5 21 -11z"/>
<path d="M2176 4678 c-19 -27 -20 -50 -4 -66 15 -15 55 -16 64 -1 4 7 0 9 -13
5 -12 -4 -25 -1 -33 9 -11 13 -8 15 19 15 23 0 31 5 31 18 0 21 -18 42 -36 42
-7 0 -20 -10 -28 -22z m52 -15 c2 -8 -5 -13 -17 -13 -21 0 -35 13 -24 24 10
10 36 3 41 -11z"/>
<path d="M2270 4681 c-13 -26 -13 -54 2 -69 13 -13 54 -16 62 -4 2 4 -7 8 -21
7 -14 0 -28 6 -30 13 -3 8 6 12 26 12 23 0 31 5 31 18 0 41 -51 57 -70 23z
m50 -16 c0 -8 -6 -15 -14 -15 -17 0 -28 14 -19 24 12 12 33 6 33 -9z"/>
<path d="M2371 4686 c-7 -8 -11 -30 -9 -48 2 -26 8 -34 27 -36 13 -2 28 1 34
7 9 9 5 11 -13 9 -22 -3 -25 2 -28 30 -3 29 -1 32 23 32 15 0 24 4 20 10 -9
15 -41 12 -54 -4z"/>
<path d="M4285 4691 c-10 -9 -5 -91 5 -91 6 0 10 16 10 35 0 22 6 38 15 41 22
9 18 23 -5 21 -12 -1 -23 -3 -25 -6z"/>
<path d="M4362 4688 c-5 -7 -9 -35 -9 -63 l2 -50 35 0 c28 0 35 4 35 20 0 14
-9 22 -30 26 -22 5 -24 7 -8 8 25 1 32 10 39 46 4 22 1 25 -25 25 -16 0 -33
-6 -39 -12z m43 -28 c0 -22 -29 -18 -33 3 -3 14 1 18 15 15 10 -2 18 -10 18
-18z m10 -65 c0 -5 -10 -11 -22 -13 -16 -2 -23 2 -23 13 0 11 7 15 23 13 12
-2 22 -7 22 -13z"/>
<path d="M4460 4681 c-19 -37 -12 -70 17 -77 14 -4 33 -2 42 3 20 13 26 60 10
79 -17 20 -56 17 -69 -5z m55 -36 c0 -23 -4 -30 -20 -30 -15 0 -21 8 -23 33
-3 30 -1 33 20 30 18 -2 23 -9 23 -33z"/>
<path d="M4566 4691 c-2 -3 -4 -25 -5 -48 -1 -53 17 -57 21 -6 2 27 8 39 21
41 14 3 17 -4 17 -37 0 -23 5 -41 10 -41 11 0 14 89 3 92 -24 4 -64 4 -67 -1z"/>
<path d="M4674 4675 c-30 -47 17 -98 62 -67 19 12 22 50 7 71 -19 28 -49 26
-69 -4z m60 -11 c6 -17 -9 -54 -23 -54 -17 0 -32 30 -26 50 8 24 40 27 49 4z"/>
<path d="M4779 4695 c0 0 -1 -21 -2 -48 -1 -32 2 -47 11 -47 7 0 12 15 12 41
0 33 3 40 18 37 11 -2 19 -16 23 -43 l5 -40 5 40 c3 28 9 41 22 43 14 3 17 -4
17 -37 0 -23 5 -41 10 -41 15 0 12 77 -2 87 -9 5 -111 13 -119 8z"/>
<path d="M4939 4691 c-4 -52 0 -86 9 -89 15 -5 17 84 2 93 -5 3 -10 1 -11 -4z"/>
<path d="M4991 4686 c-7 -8 -11 -30 -9 -48 2 -26 8 -34 27 -36 13 -2 28 2 35
8 8 9 5 10 -15 5 -21 -5 -27 -2 -32 15 -8 30 2 50 24 50 10 0 19 5 19 10 0 15
-36 12 -49 -4z"/>
<path d="M5070 4685 c-10 -12 -10 -18 0 -30 7 -8 19 -15 26 -15 8 0 14 -7 14
-16 0 -12 -7 -15 -25 -12 -13 3 -22 1 -19 -3 9 -15 54 -10 61 7 4 10 -4 24
-23 40 -28 22 -28 23 -6 24 12 0 22 5 22 10 0 15 -36 12 -50 -5z"/>
<path d="M2563 4643 c9 -2 23 -2 30 0 6 3 -1 5 -18 5 -16 0 -22 -2 -12 -5z"/>
<path d="M1920 4450 c0 -40 4 -70 10 -70 6 0 10 30 10 70 0 40 -4 70 -10 70
-6 0 -10 -30 -10 -70z"/>
<path d="M4284 4505 c-4 -8 -3 -22 0 -30 3 -9 0 -25 -7 -35 -21 -34 2 -55 61
-55 39 0 48 3 40 12 -6 7 -7 24 -4 38 4 14 2 25 -4 25 -5 0 -10 -7 -10 -15 0
-19 -14 -19 -29 -1 -9 10 -8 16 4 26 8 7 15 21 15 31 0 14 -7 19 -30 19 -18 0
-33 -6 -36 -15z m44 -12 c-4 -22 -22 -20 -26 1 -2 10 3 16 13 16 10 0 15 -7
13 -17z m-10 -65 c18 -18 15 -28 -8 -28 -13 0 -20 7 -20 20 0 23 10 26 28 8z"/>
<path d="M4463 4445 c0 -48 2 -59 6 -35 5 31 10 35 36 35 27 0 30 -3 27 -27
-2 -14 2 -29 7 -33 7 -4 11 16 11 59 0 39 -4 66 -10 66 -6 0 -10 -6 -9 -12 4
-30 -3 -38 -30 -38 -25 0 -30 5 -34 28 -2 15 -4 -4 -4 -43z"/>
<path d="M1970 4469 c-12 -8 -10 -9 9 -4 15 5 26 2 32 -6 6 -10 1 -15 -19 -19
-28 -5 -42 -34 -24 -52 6 -6 23 -7 40 -4 24 6 29 12 30 39 1 51 -31 72 -68 46z
m45 -49 c3 -6 -1 -13 -10 -16 -19 -8 -30 0 -20 15 8 14 22 14 30 1z"/>
<path d="M2060 4435 c0 -24 5 -47 10 -50 6 -4 10 6 10 24 0 39 9 61 26 61 10
0 14 -12 14 -39 0 -22 5 -43 11 -46 7 -5 9 9 7 42 l-3 48 -37 2 -38 1 0 -43z"/>
<path d="M2173 4463 c-5 -10 -8 -38 -8 -63 0 -43 1 -45 33 -48 36 -4 53 19 35
47 -7 11 -8 23 -1 34 5 10 7 21 3 26 -3 5 1 12 7 14 7 3 -4 6 -24 6 -26 1 -40
-4 -45 -16z m45 -16 c2 -10 -3 -17 -12 -17 -10 0 -16 9 -16 21 0 24 23 21 28
-4z m5 -72 c-6 -18 -34 -16 -41 3 -2 7 6 12 22 12 19 0 24 -4 19 -15z"/>
<path d="M2265 4468 c-2 -7 -1 -29 3 -48 7 -32 11 -35 42 -35 35 0 35 0 37 48
2 55 -14 64 -19 10 -2 -27 -8 -39 -20 -41 -15 -3 -18 4 -18 37 0 39 -15 56
-25 29z"/>
<path d="M2375 4470 c-4 -7 2 -9 19 -4 20 5 26 2 26 -9 0 -9 -10 -17 -22 -19
-24 -3 -36 -34 -20 -50 6 -6 23 -7 40 -4 24 6 29 12 30 39 0 17 -4 37 -10 44
-13 16 -54 17 -63 3z m45 -55 c0 -8 -7 -15 -15 -15 -16 0 -20 12 -8 23 11 12
23 8 23 -8z"/>
<path d="M2475 4468 c-2 -7 -5 -34 -8 -60 -3 -35 -1 -48 10 -52 43 -17 87 10
63 39 -7 8 -22 15 -34 16 -19 1 -19 2 3 8 15 4 27 17 32 34 7 26 5 27 -27 27
-19 0 -36 -6 -39 -12z m43 -21 c2 -10 -3 -17 -12 -17 -10 0 -16 9 -16 21 0 24
23 21 28 -4z m10 -69 c-3 -7 -13 -13 -23 -13 -10 0 -20 6 -22 13 -3 7 5 12 22
12 17 0 25 -5 23 -12z"/>
<path d="M2572 4468 c-30 -30 0 -92 41 -86 31 5 31 24 1 23 -15 0 -29 6 -31
13 -3 8 6 12 27 12 27 0 31 3 28 23 -3 25 -45 36 -66 15z m52 -13 c4 -11 -1
-15 -19 -15 -24 0 -32 10 -18 23 11 12 31 8 37 -8z"/>
<path d="M4580 4448 c0 -45 14 -63 50 -63 29 -1 30 0 30 47 0 57 -17 65 -22
11 -2 -27 -8 -39 -20 -41 -15 -3 -18 4 -18 37 0 23 -4 41 -10 41 -5 0 -10 -15
-10 -32z"/>
<path d="M4690 4429 c0 -60 18 -65 22 -6 4 60 31 58 39 -3 5 -47 16 -39 21 15
5 48 32 39 36 -13 4 -49 22 -47 22 2 0 44 -14 53 -82 53 l-58 0 0 -48z"/>
<path d="M4855 4470 c-4 -7 2 -9 19 -4 20 5 26 2 26 -9 0 -9 -10 -17 -22 -19
-17 -2 -23 -10 -23 -28 0 -22 5 -25 33 -25 33 -1 33 -1 30 45 -3 40 -6 45 -30
48 -14 2 -29 -2 -33 -8z m45 -55 c0 -8 -7 -15 -15 -15 -8 0 -15 7 -15 15 0 8
7 15 15 15 8 0 15 -7 15 -15z"/>
<path d="M4950 4435 c0 -58 18 -68 22 -13 4 60 32 60 36 1 2 -24 8 -43 13 -43
6 0 9 21 7 48 -3 47 -3 47 -40 49 l-38 1 0 -43z"/>
<path d="M2150 4230 c0 -73 17 -98 22 -33 2 27 8 39 21 41 14 3 17 -4 17 -37
0 -23 5 -41 10 -41 15 0 12 63 -4 85 -8 11 -19 16 -30 12 -12 -5 -16 0 -16 18
0 14 -4 25 -10 25 -6 0 -10 -30 -10 -70z"/>
<path d="M2360 4230 c0 -40 4 -70 10 -70 6 0 10 30 10 70 0 40 -4 70 -10 70
-6 0 -10 -30 -10 -70z"/>
<path d="M4387 4278 c-17 -27 -11 -118 7 -118 7 0 10 14 8 40 -3 34 -1 40 14
40 18 1 18 2 -1 16 -20 15 -20 15 -1 30 17 12 17 14 3 14 -9 0 -23 -10 -30
-22z"/>
<path d="M2078 4263 c-10 -13 -10 -17 0 -20 7 -3 12 -21 12 -44 0 -34 3 -39
23 -39 20 1 20 2 5 11 -23 13 -24 66 -3 71 13 2 13 6 -4 20 -18 15 -21 15 -33
1z"/>
<path d="M4622 4259 c-7 -10 -8 -19 -3 -19 6 0 11 -17 13 -37 2 -29 8 -38 23
-40 11 -2 14 0 8 3 -15 7 -18 74 -3 74 16 0 12 14 -8 27 -15 9 -21 7 -30 -8z"/>
<path d="M1898 4253 c-15 -4 -18 -16 -18 -69 0 -41 4 -63 10 -59 6 3 10 13 10
21 0 8 10 14 24 14 34 0 51 61 24 88 -12 12 -20 13 -50 5z m44 -37 c6 -32 -6
-51 -26 -43 -16 6 -22 47 -9 60 14 14 31 6 35 -17z"/>
<path d="M1997 4253 c-13 -12 -7 -20 14 -19 33 1 35 -22 2 -26 -20 -2 -28 -9
-28 -23 0 -16 8 -21 38 -23 36 -3 37 -3 37 32 0 47 -39 84 -63 59z m43 -63 c0
-12 -28 -25 -36 -17 -9 9 6 27 22 27 8 0 14 -5 14 -10z"/>
<path d="M2267 4242 c-10 -10 -17 -31 -17 -45 0 -49 81 -48 88 1 8 52 -38 80
-71 44z m48 -37 c0 -23 -4 -30 -20 -30 -21 0 -31 25 -21 51 11 28 41 12 41
-21z"/>
<path d="M2417 4242 c-36 -39 -12 -86 40 -80 24 3 28 8 31 38 5 53 -38 78 -71
42z m48 -37 c0 -23 -4 -30 -20 -30 -21 0 -31 25 -21 51 11 28 41 12 41 -21z"/>
<path d="M2521 4246 c-7 -8 -11 -37 -9 -68 3 -49 5 -53 29 -56 29 -3 54 20 45
43 -3 8 -18 15 -33 16 l-28 1 25 7 c15 4 26 15 28 29 8 55 52 -11 52 -79 0
-33 14 -14 38 53 12 31 17 60 13 63 -5 3 -15 -12 -22 -32 l-12 -38 -15 32
c-20 42 -86 59 -111 29z m39 -26 c0 -11 -7 -20 -15 -20 -8 0 -15 9 -15 20 0
11 7 20 15 20 8 0 15 -9 15 -20z m10 -65 c0 -9 -9 -15 -25 -15 -18 0 -23 4
-19 15 4 8 15 15 25 15 10 0 19 -7 19 -15z"/>
<path d="M4451 4246 c-9 -11 -6 -12 14 -8 18 3 25 0 25 -11 0 -9 -10 -17 -22
-19 -15 -2 -23 -10 -23 -23 0 -16 8 -21 36 -23 35 -3 35 -3 33 34 -5 56 -36
82 -63 50z m39 -61 c0 -8 -7 -15 -15 -15 -8 0 -15 7 -15 15 0 8 7 15 15 15 8
0 15 -7 15 -15z"/>
<path d="M4545 4237 c-22 -34 -6 -77 29 -77 14 0 28 5 31 10 4 7 -2 9 -18 5
-19 -5 -25 -2 -30 15 -8 32 3 52 25 47 12 -4 18 -1 15 6 -7 22 -36 18 -52 -6z"/>
<path d="M4701 4246 c-7 -8 -11 -30 -9 -48 3 -28 7 -33 33 -36 50 -6 71 42 35
78 -24 24 -43 25 -59 6z m54 -25 c7 -24 -3 -51 -21 -51 -18 0 -33 28 -27 51 7
24 40 24 48 0z"/>
<path d="M4818 4253 c-14 -3 -18 -15 -18 -49 0 -24 5 -44 10 -44 6 0 10 16 10
35 0 22 6 38 15 41 8 4 15 10 15 15 0 9 -4 10 -32 2z"/>
<path d="M4888 4249 c-26 -15 -22 -38 8 -49 28 -11 23 -35 -7 -27 -11 3 -19 1
-19 -5 0 -5 15 -8 32 -6 42 4 51 34 14 48 -31 11 -34 30 -5 30 11 0 17 5 14
10 -8 12 -15 12 -37 -1z"/>
<path d="M1241 3588 c-9 -28 -2 -118 10 -118 5 0 9 18 9 39 0 22 5 42 13 44 9
4 9 8 -2 15 -12 9 -12 13 -2 26 11 14 11 16 -3 16 -9 0 -20 -10 -25 -22z"/>
<path d="M1800 3600 c0 -5 5 -10 10 -10 6 0 10 5 10 10 0 6 -4 10 -10 10 -5 0
-10 -4 -10 -10z"/>
<path d="M1070 3535 c0 -37 4 -65 10 -65 6 0 10 28 10 65 0 37 -4 65 -10 65
-6 0 -10 -28 -10 -65z"/>
<path d="M1742 3577 c-5 -7 -7 -32 -3 -57 5 -39 10 -45 31 -48 22 -2 23 -1 8
8 -21 13 -24 66 -6 72 9 3 8 9 -4 21 -12 13 -18 14 -26 4z"/>
<path d="M1129 3556 c-4 -43 -3 -86 3 -86 4 0 8 17 10 38 2 29 7 37 23 37 16
0 21 -8 23 -37 2 -21 7 -38 13 -38 11 0 12 60 0 79 -11 17 -71 22 -72 7z"/>
<path d="M1307 3552 c-32 -35 -15 -82 28 -82 12 0 26 5 33 12 19 19 15 66 -7
78 -27 14 -35 13 -54 -8z m51 -34 c-2 -25 -8 -33 -23 -33 -20 0 -31 25 -21 51
3 8 15 14 26 14 18 0 21 -5 18 -32z"/>
<path d="M1409 3561 c-5 -61 -4 -91 5 -88 6 2 11 16 11 31 1 16 9 34 20 42 10
8 17 14 14 15 -24 5 -49 5 -50 0z"/>
<path d="M1498 3562 c-14 -3 -18 -14 -18 -48 0 -53 18 -59 22 -7 2 27 8 39 21
41 14 3 17 -4 17 -38 0 -25 4 -39 10 -35 6 3 10 22 10 41 0 23 5 34 15 34 14
0 29 -37 23 -56 -2 -5 2 -10 7 -12 12 -3 15 35 5 63 -6 16 -17 20 -51 21 -24
0 -52 -1 -61 -4z"/>
<path d="M1651 3556 c-9 -11 -6 -12 14 -8 18 3 25 0 25 -11 0 -9 -10 -17 -22
-19 -15 -2 -23 -10 -23 -23 0 -15 8 -21 33 -23 31 -3 32 -2 32 35 0 55 -32 82
-59 49z m39 -61 c0 -8 -7 -15 -15 -15 -8 0 -15 7 -15 15 0 8 7 15 15 15 8 0
15 -7 15 -15z"/>
<path d="M1857 3552 c-32 -35 -15 -82 28 -82 12 0 26 5 33 12 19 19 15 66 -7
78 -27 14 -35 13 -54 -8z m51 -34 c-2 -25 -8 -33 -23 -33 -20 0 -31 25 -21 51
3 8 15 14 26 14 18 0 21 -5 18 -32z"/>
<path d="M1957 3535 c-2 -16 -1 -39 4 -50 7 -18 8 -17 8 7 1 37 11 58 27 58
14 0 28 -37 22 -57 -2 -6 2 -13 7 -14 14 -5 18 33 6 64 -8 21 -16 26 -40 24
-24 -2 -30 -7 -34 -32z"/>
<path d="M1800 3515 c0 -25 5 -45 10 -45 6 0 10 20 10 45 0 25 -4 45 -10 45
-5 0 -10 -20 -10 -45z"/>
<path d="M5225 3490 c3 -5 10 -10 16 -10 5 0 9 5 9 10 0 6 -7 10 -16 10 -8 0
-12 -4 -9 -10z"/>
<path d="M5645 3490 c3 -5 10 -10 16 -10 5 0 9 5 9 10 0 6 -7 10 -16 10 -8 0
-12 -4 -9 -10z"/>
<path d="M4929 3486 c-2 -2 -2 -32 -1 -65 l4 -61 36 1 c32 1 34 2 12 8 -32 9
-41 51 -11 51 11 0 23 5 26 10 4 6 -5 10 -20 10 -34 0 -30 31 5 41 22 6 21 7
-11 8 -20 1 -38 -1 -40 -3z"/>
<path d="M5020 3410 c0 -39 4 -50 16 -50 9 0 14 8 13 18 -4 40 2 62 16 62 15
0 17 -5 19 -49 2 -43 26 -37 26 6 0 48 -14 63 -57 63 -33 0 -33 0 -33 -50z"/>
<path d="M5137 3453 c-3 -5 -7 -33 -8 -63 l-4 -55 40 0 c30 0 41 4 43 18 3 12
-4 20 -17 24 -18 5 -19 7 -7 17 7 6 16 23 20 39 6 25 4 27 -28 27 -19 0 -37
-3 -39 -7z m43 -28 c0 -8 -7 -15 -15 -15 -8 0 -15 7 -15 15 0 8 7 15 15 15 8
0 15 -7 15 -15z m5 -64 c3 -5 1 -13 -5 -16 -15 -9 -43 3 -35 15 8 13 32 13 40
1z"/>
<path d="M5227 3453 c-2 -5 -5 -27 -6 -50 -1 -32 3 -43 14 -43 11 0 15 12 15
50 0 44 -11 64 -23 43z"/>
<path d="M5270 3408 c0 -34 4 -48 12 -46 7 3 12 20 12 38 1 25 6 36 19 38 14
3 17 -4 17 -37 0 -30 4 -41 15 -41 10 0 15 10 15 31 0 50 -16 69 -55 67 l-35
-1 0 -49z"/>
<path d="M5380 3441 c-13 -26 -13 -54 2 -69 15 -15 54 -16 63 -2 4 6 -3 9 -16
7 -12 -1 -24 4 -26 11 -3 8 6 12 26 12 17 0 31 5 31 11 0 25 -22 49 -45 49
-14 0 -29 -8 -35 -19z m55 -11 c3 -5 -3 -10 -14 -10 -12 0 -21 5 -21 10 0 6 6
10 14 10 8 0 18 -4 21 -10z"/>
<path d="M5482 3448 c-15 -15 -16 -60 0 -76 15 -15 55 -16 64 -1 4 7 0 9 -13
5 -12 -4 -25 -1 -33 9 -11 13 -8 15 19 15 29 0 32 3 29 28 -2 20 -9 28 -28 30
-14 2 -31 -3 -38 -10z m48 -18 c0 -5 -9 -10 -21 -10 -11 0 -17 5 -14 10 3 6
13 10 21 10 8 0 14 -4 14 -10z"/>
<path d="M5571 3410 c3 -60 29 -73 29 -14 0 23 6 42 18 50 15 12 14 13 -16 14
l-33 0 2 -50z"/>
<path d="M5648 3453 c-9 -19 -2 -87 10 -90 8 -3 12 10 12 46 0 44 -11 66 -22
44z"/>
<path d="M5690 3408 c0 -26 5 -48 10 -48 6 0 10 11 10 24 0 35 10 56 26 56 10
0 14 -12 14 -40 0 -29 4 -40 15 -40 10 0 15 10 15 31 0 50 -16 69 -55 67 -35
-1 -35 -1 -35 -50z"/>
<path d="M5803 3448 c-5 -7 -9 -35 -8 -63 l0 -50 40 0 c33 0 40 3 40 20 0 14
-9 21 -30 25 l-30 6 28 7 c15 4 27 14 27 21 0 8 3 21 6 30 5 13 -1 16 -29 16
-19 0 -39 -6 -44 -12z m47 -23 c0 -8 -7 -15 -15 -15 -8 0 -15 7 -15 15 0 8 7
15 15 15 8 0 15 -7 15 -15z m5 -64 c3 -5 1 -13 -5 -16 -15 -9 -43 3 -35 15 8
13 32 13 40 1z"/>
<path d="M1680 3380 c0 -5 5 -10 10 -10 6 0 10 5 10 10 0 6 -4 10 -10 10 -5 0
-10 -4 -10 -10z"/>
<path d="M1722 3355 c-7 -8 -8 -15 -3 -15 5 0 11 -19 13 -42 2 -34 7 -44 23
-46 16 -3 18 -1 8 9 -18 19 -17 79 2 79 18 0 34 -30 44 -83 l7 -42 21 47 c29
65 36 88 25 88 -6 0 -15 -15 -22 -32 l-12 -33 -16 33 c-11 22 -23 32 -39 32
-13 0 -23 5 -23 10 0 14 -13 12 -28 -5z"/>
<path d="M1233 3333 c-4 -11 1 -22 15 -31 28 -19 30 -46 2 -39 -11 3 -18 1
-14 -4 9 -14 40 -10 55 7 12 14 10 19 -14 38 -32 26 -35 40 -7 33 11 -3 18 -1
14 4 -9 15 -44 10 -51 -8z"/>
<path d="M1320 3330 c-18 -33 -8 -63 23 -74 20 -7 30 -6 40 4 10 10 9 12 -7 6
-10 -3 -25 -1 -34 6 -13 11 -11 14 14 18 23 4 29 10 29 30 0 34 -48 42 -65 10z
m50 -5 c0 -8 -9 -15 -20 -15 -13 0 -18 5 -14 15 4 8 12 15 20 15 8 0 14 -7 14
-15z"/>
<path d="M1422 3338 c-7 -7 -12 -24 -12 -38 0 -14 5 -31 12 -38 15 -15 45 -15
54 0 5 7 2 9 -9 5 -21 -8 -39 16 -35 45 2 17 9 23 26 22 12 0 22 3 22 8 0 12
-44 10 -58 -4z"/>
<path d="M1500 3311 c0 -44 13 -59 53 -59 26 0 27 3 27 49 0 27 -4 49 -10 49
-5 0 -10 -13 -10 -29 0 -41 -9 -61 -26 -54 -9 3 -14 20 -14 44 0 21 -4 39 -10
39 -5 0 -10 -17 -10 -39z"/>
<path d="M1610 3298 c0 -26 5 -48 10 -48 6 0 10 15 10 33 0 36 8 51 30 59 8 3
0 6 -17 5 -33 0 -33 -1 -33 -49z"/>
<path d="M1680 3300 c0 -27 5 -50 10 -50 6 0 10 23 10 50 0 28 -4 50 -10 50
-5 0 -10 -22 -10 -50z"/>
<path d="M3687 3260 c-171 -54 -257 -196 -257 -425 0 -154 37 -262 114 -336
66 -64 117 -83 224 -87 103 -4 169 11 235 54 35 23 37 28 37 74 0 30 -4 50
-11 50 -6 0 -37 -16 -69 -36 -68 -42 -149 -54 -227 -35 -70 18 -111 54 -147
130 -30 63 -31 72 -31 191 0 116 2 129 28 185 36 77 60 102 125 131 84 38 173
27 263 -33 50 -33 69 -25 69 26 0 43 -14 62 -63 88 -87 45 -196 53 -290 23z"/>
<path d="M2637 3264 c-4 -4 -7 -193 -7 -420 0 -398 1 -414 19 -424 22 -11 61
-13 85 -4 14 5 16 32 16 200 l0 194 190 0 c174 0 190 -1 190 -17 0 -10 1 -94
1 -188 0 -106 4 -174 11 -182 12 -14 76 -17 96 -5 10 7 12 99 10 428 l-3 419
-55 0 -55 0 -3 -177 -2 -178 -190 0 -190 0 -2 178 -3 177 -50 3 c-28 2 -54 0
-58 -4z"/>
<path d="M4197 3243 c-3 -15 -6 -202 -6 -415 0 -336 2 -389 15 -403 16 -16 70
-20 92 -7 10 7 12 99 10 428 l-3 419 -51 3 c-49 3 -52 2 -57 -25z"/>
<path d="M1687 2254 c-11 -11 -8 -144 3 -144 6 0 11 14 11 30 1 17 2 44 3 60
1 37 -7 64 -17 54z"/>
<path d="M1470 2180 c0 -73 17 -98 22 -33 2 27 8 39 21 41 14 3 17 -4 17 -37
0 -23 5 -41 11 -41 6 0 9 19 7 48 -3 43 -5 47 -30 50 -20 2 -28 9 -28 23 0 10
-4 19 -10 19 -6 0 -10 -30 -10 -70z"/>
<path d="M5440 2240 c0 -5 5 -10 10 -10 6 0 10 5 10 10 0 6 -4 10 -10 10 -5 0
-10 -4 -10 -10z"/>
<path d="M1093 2180 c1 -34 6 -59 12 -58 5 2 9 8 7 15 -1 7 13 19 33 27 26 11
35 21 35 39 0 27 -16 37 -60 37 -29 0 -29 0 -27 -60z m57 24 c0 -19 -4 -25
-17 -22 -28 5 -25 48 3 48 8 0 14 -10 14 -26z"/>
<path d="M5140 2175 c0 -64 0 -65 28 -65 43 0 72 26 72 64 0 41 -26 66 -68 66
l-32 0 0 -65z m70 36 c14 -28 12 -52 -7 -73 -30 -33 -43 -23 -43 37 0 48 2 55
20 55 10 0 24 -9 30 -19z"/>
<path d="M1200 2195 c-10 -12 -10 -18 0 -30 7 -8 19 -15 26 -15 8 0 14 -4 14
-10 0 -10 -14 -14 -39 -11 -7 2 -10 -2 -6 -8 8 -15 48 -14 63 1 14 14 -2 48
-23 48 -8 0 -15 7 -15 15 0 13 4 14 21 4 17 -9 20 -8 17 3 -7 19 -43 22 -58 3z"/>
<path d="M1270 2206 c0 -2 7 -20 15 -39 8 -20 15 -51 15 -69 0 -28 2 -30 14
-18 12 14 46 102 46 122 0 21 -19 5 -30 -24 l-11 -33 -14 33 c-8 17 -19 32
-25 32 -5 0 -10 -2 -10 -4z"/>
<path d="M1384 2186 c-10 -42 -1 -71 25 -74 13 -2 28 2 35 9 8 9 7 10 -8 5
-22 -8 -36 8 -36 42 0 21 9 27 39 23 7 -2 10 2 6 8 -3 6 -17 11 -30 11 -18 0
-26 -7 -31 -24z"/>
<path d="M1582 2198 c-7 -7 -12 -24 -12 -38 0 -43 41 -65 78 -41 18 11 19 71
1 82 -20 12 -53 11 -67 -3z m56 -39 c2 -17 -3 -29 -12 -32 -19 -8 -39 25 -30
48 10 24 39 13 42 -16z"/>
<path d="M1731 2196 c-16 -19 -10 -66 10 -79 26 -16 66 -1 71 28 10 50 -51 88
-81 51z m59 -36 c0 -36 -17 -47 -38 -27 -13 13 -13 21 -4 41 15 33 42 24 42
-14z"/>
<path d="M1836 2202 c-8 -13 -10 -97 -2 -110 10 -16 61 -15 75 2 9 11 8 17 -4
29 -13 13 -13 19 -1 49 l14 33 12 -30 c7 -16 14 -45 15 -63 1 -18 5 -35 8 -38
7 -8 25 28 43 84 17 56 16 52 3 52 -5 0 -15 -15 -21 -32 l-12 -33 -13 33 c-12
30 -16 32 -62 32 -28 0 -52 -3 -55 -8z m44 -27 c0 -8 -7 -15 -15 -15 -16 0
-20 12 -8 23 11 12 23 8 23 -8z m8 -67 c-7 -19 -38 -22 -38 -4 0 10 9 16 21
16 12 0 19 -5 17 -12z"/>
<path d="M5272 2198 c-7 -7 -12 -24 -12 -38 0 -14 5 -31 12 -38 14 -14 44 -16
52 -3 4 5 -2 7 -12 4 -10 -2 -24 3 -31 11 -12 14 -10 16 17 16 37 0 47 12 32
40 -12 22 -40 26 -58 8z m42 -13 c4 -10 -1 -15 -14 -15 -20 0 -26 11 -13 23
10 11 20 8 27 -8z"/>
<path d="M5360 2195 c-15 -18 -6 -33 27 -46 32 -12 19 -33 -16 -24 -19 5 -23
4 -15 -5 7 -6 22 -10 35 -8 32 4 39 44 10 53 -12 3 -21 13 -21 21 0 11 6 13
21 9 15 -5 19 -4 15 4 -10 16 -41 14 -56 -4z"/>
<path d="M5440 2160 c0 -27 5 -50 10 -50 6 0 10 23 10 50 0 28 -4 50 -10 50
-5 0 -10 -22 -10 -50z"/>
<path d="M5492 2198 c-5 -7 -9 -35 -8 -63 1 -47 3 -50 29 -53 16 -2 34 2 42 8
21 18 6 40 -29 41 -23 1 -25 3 -8 6 19 4 53 43 36 43 -3 0 -1 7 6 15 11 13 7
15 -23 15 -19 0 -39 -6 -45 -12z m45 -13 c7 -20 -2 -29 -21 -22 -9 4 -13 13
-10 22 8 19 23 19 31 0z m8 -80 c0 -5 -10 -11 -22 -13 -16 -2 -23 2 -23 13 0
11 7 15 23 13 12 -2 22 -7 22 -13z"/>
<path d="M5591 2155 l1 -50 8 38 c14 73 50 73 50 0 0 -18 5 -33 10 -33 11 0
13 42 4 77 -5 19 -12 22 -40 20 -34 -2 -34 -2 -33 -52z"/>
<path d="M4475 1461 c-3 -5 -1 -12 5 -16 5 -3 10 1 10 9 0 18 -6 21 -15 7z"/>
<path d="M4627 1463 c-11 -10 -8 -131 3 -138 11 -7 12 -4 12 78 1 58 -3 73
-15 60z"/>
<path d="M5021 1456 c-7 -8 -9 -25 -6 -39 4 -14 2 -28 -4 -31 -17 -11 -13 -44
7 -54 18 -10 92 -9 92 2 0 3 0 9 -1 14 -1 4 0 17 1 30 1 12 -3 22 -9 22 -6 0
-11 -7 -11 -15 0 -19 -19 -19 -26 0 -3 8 1 22 10 30 19 20 20 27 4 43 -16 16
-43 15 -57 -2z m42 -13 c9 -9 -13 -34 -24 -27 -14 8 -11 34 4 34 8 0 17 -3 20
-7z m1 -94 c-7 -12 -31 -11 -39 1 -4 6 -4 18 -1 27 6 14 8 14 26 -2 11 -10 17
-22 14 -26z"/>
<path d="M4192 1448 c-21 -21 -13 -47 19 -63 36 -19 33 -40 -4 -40 -15 1 -27
-3 -27 -7 0 -16 31 -21 56 -9 32 14 29 51 -6 68 -31 15 -32 37 -2 41 12 2 20
8 17 13 -9 13 -39 11 -53 -3z"/>
<path d="M4292 1408 c-7 -7 -12 -24 -12 -38 0 -52 48 -68 76 -25 32 49 -24
103 -64 63z m53 -17 c8 -26 -4 -51 -25 -51 -21 0 -31 30 -18 54 12 22 35 20
43 -3z"/>
<path d="M4390 1401 c-15 -28 -12 -46 8 -64 20 -19 52 -23 52 -7 0 6 -9 10
-19 10 -22 0 -34 25 -25 52 4 13 12 18 25 15 10 -3 19 -1 19 4 0 17 -49 9 -60
-10z"/>
<path d="M4470 1376 c0 -25 5 -48 10 -51 6 -4 10 13 10 44 0 28 -4 51 -10 51
-5 0 -10 -20 -10 -44z"/>
<path d="M4520 1401 c-16 -30 -2 -70 26 -77 35 -9 56 12 52 55 -3 32 -6 36
-35 39 -24 2 -34 -2 -43 -17z m60 -10 c13 -25 3 -51 -20 -51 -25 0 -33 16 -26
46 8 29 31 32 46 5z"/>
<path d="M4669 1396 c-10 -20 -9 -30 5 -51 21 -32 55 -30 72 4 18 36 3 65 -35
69 -25 3 -33 -2 -42 -22z m64 -7 c8 -29 -2 -49 -23 -49 -21 0 -33 25 -25 51 8
26 41 24 48 -2z"/>
<path d="M4784 1412 c-7 -4 -11 -30 -10 -62 l1 -55 35 0 c31 0 35 3 35 25 0
20 -6 26 -30 29 -29 4 -30 4 -5 10 14 4 29 17 35 29 5 12 13 22 17 22 7 0 23
-52 31 -100 3 -23 6 -21 24 20 28 62 36 90 25 90 -6 0 -15 -15 -22 -32 l-12
-33 -14 33 c-13 29 -18 32 -57 32 -23 0 -47 -4 -53 -8z m42 -13 c10 -17 -13
-36 -27 -22 -12 12 -4 33 11 33 5 0 12 -5 16 -11z m0 -87 c-12 -12 -19 -13
-27 -5 -16 16 -3 32 22 26 19 -5 19 -7 5 -21z"/>
<path d="M2330 1350 c0 -5 5 -10 10 -10 6 0 10 5 10 10 0 6 -4 10 -10 10 -5 0
-10 -4 -10 -10z"/>
<path d="M2440 1350 c0 -5 5 -10 10 -10 6 0 10 5 10 10 0 6 -4 10 -10 10 -5 0
-10 -4 -10 -10z"/>
<path d="M1927 1332 c-20 -22 -22 -83 -5 -100 14 -14 64 -16 72 -4 3 5 -8 6
-24 4 -24 -3 -30 0 -35 21 -13 50 -3 72 35 77 27 4 31 7 17 13 -29 11 -43 9
-60 -11z"/>
<path d="M2371 1319 c-7 -12 -7 -19 -1 -19 5 0 10 -18 10 -40 0 -35 3 -40 23
-40 17 0 19 2 7 10 -18 11 -21 63 -3 70 10 4 9 9 -5 21 -17 15 -20 15 -31 -2z"/>
<path d="M2143 1309 c-17 -6 -21 -16 -22 -63 -1 -52 1 -56 25 -62 17 -4 31 -1
41 9 22 22 9 47 -24 48 -27 1 -28 1 -4 8 31 8 48 57 22 64 -9 2 -26 1 -38 -4z
m32 -29 c0 -22 -29 -18 -33 3 -3 14 1 18 15 15 10 -2 18 -10 18 -18z m6 -65
c0 -5 -9 -11 -21 -13 -20 -3 -27 8 -13 22 10 9 34 3 34 -9z"/>
<path d="M2529 1278 l-12 -43 -15 38 c-21 53 -34 46 -15 -8 8 -25 20 -45 27
-45 15 0 48 88 36 95 -5 3 -14 -14 -21 -37z"/>
<path d="M2585 1297 c-18 -26 -19 -49 -3 -65 13 -13 54 -16 62 -4 2 4 -7 8
-21 7 -14 0 -28 6 -30 13 -3 8 7 12 31 12 32 0 35 2 27 22 -12 33 -47 42 -66
15z m49 -12 c4 -11 -1 -15 -19 -15 -18 0 -23 4 -19 15 4 8 12 15 19 15 7 0 15
-7 19 -15z"/>
<path d="M2022 1298 c-16 -16 -15 -53 2 -68 36 -29 92 13 75 58 -9 25 -56 31
-77 10z m62 -14 c8 -20 -10 -54 -28 -54 -18 0 -28 27 -21 51 8 23 41 25 49 3z"/>
<path d="M2225 1265 c0 -25 3 -45 8 -45 4 0 7 16 7 35 0 23 6 38 15 42 21 8
26 1 28 -38 2 -40 27 -53 27 -14 0 44 -17 65 -53 65 -31 0 -32 -1 -32 -45z"/>
<path d="M2330 1265 c0 -25 5 -45 10 -45 6 0 10 20 10 45 0 25 -4 45 -10 45
-5 0 -10 -20 -10 -45z"/>
<path d="M2439 1283 c0 -16 -2 -36 -4 -45 -2 -10 3 -18 11 -18 10 0 14 13 14
45 0 48 -19 64 -21 18z"/>
<path d="M4720 1240 c0 -5 5 -10 10 -10 6 0 10 5 10 10 0 6 -4 10 -10 10 -5 0
-10 -4 -10 -10z"/>
<path d="M4860 1180 c0 -40 4 -70 10 -70 6 0 10 30 10 70 0 40 -4 70 -10 70
-6 0 -10 -30 -10 -70z"/>
<path d="M4443 1233 c-23 -9 -14 -41 18 -66 39 -30 31 -52 -15 -43 -25 4 -27
3 -13 -5 24 -14 58 -8 71 14 9 16 5 23 -23 47 -35 30 -34 56 1 44 14 -4 18 -2
14 5 -7 11 -31 13 -53 4z"/>
<path d="M4535 1190 c-15 -16 -17 -26 -9 -48 8 -22 16 -27 43 -27 40 0 56 28
37 66 -15 31 -47 35 -71 9z m59 -16 c6 -17 -9 -54 -23 -54 -17 0 -32 30 -26
50 8 24 40 27 49 4z"/>
<path d="M4646 1194 c-19 -18 -21 -55 -4 -72 14 -14 58 -16 58 -3 0 5 -9 7
-20 4 -14 -4 -21 1 -25 20 -8 32 0 47 26 47 11 0 17 5 14 10 -9 15 -31 12 -49
-6z"/>
<path d="M4720 1160 c0 -27 5 -50 10 -50 6 0 10 23 10 50 0 28 -4 50 -10 50
-5 0 -10 -22 -10 -50z"/>
<path d="M4775 1201 c-3 -5 4 -11 15 -13 28 -4 27 -22 -2 -28 -14 -4 -23 -13
-23 -25 0 -16 8 -21 38 -23 37 -3 37 -3 37 35 0 22 -5 44 -12 51 -14 14 -44
16 -53 3z m38 -66 c-6 -17 -25 -15 -31 3 -2 7 5 12 17 12 14 0 19 -5 14 -15z"/>
<path d="M2170 1130 c0 -5 5 -10 10 -10 6 0 10 5 10 10 0 6 -4 10 -10 10 -5 0
-10 -4 -10 -10z"/>
<path d="M2000 1085 c-10 -12 -10 -18 0 -30 7 -8 19 -15 27 -15 8 0 13 -6 10
-12 -2 -7 -14 -12 -26 -11 -13 2 -20 -1 -16 -7 10 -16 55 -11 62 7 4 11 -3 24
-21 38 -29 23 -22 41 10 28 12 -4 15 -3 10 5 -10 17 -41 15 -56 -3z"/>
<path d="M2092 1088 c-7 -7 -12 -24 -12 -38 0 -14 5 -31 12 -38 15 -15 45 -16
53 -2 4 6 -4 9 -17 7 -20 -2 -23 2 -23 33 0 31 3 35 23 33 13 -2 21 1 17 7 -8
14 -38 13 -53 -2z"/>
<path d="M2170 1050 c0 -27 5 -50 10 -50 6 0 10 23 10 50 0 28 -4 50 -10 50
-5 0 -10 -22 -10 -50z"/>
<path d="M2222 1088 c-7 -7 -12 -27 -12 -45 0 -27 5 -34 26 -39 14 -4 30 -2
36 4 8 8 5 9 -9 6 -11 -3 -25 1 -32 10 -12 14 -10 16 17 16 37 0 47 12 32 40
-12 22 -40 26 -58 8z m42 -13 c4 -11 -2 -15 -21 -15 -21 0 -24 2 -13 15 7 8
16 15 20 15 4 0 10 -7 14 -15z"/>
<path d="M2310 1049 c0 -60 18 -65 22 -6 2 29 8 42 18 42 10 0 16 -13 18 -42
4 -54 22 -57 22 -4 0 44 -13 59 -52 59 -27 0 -28 -3 -28 -49z"/>
<path d="M2422 1088 c-7 -7 -12 -24 -12 -38 0 -14 5 -31 12 -38 15 -15 58 -16
58 -1 0 6 -6 9 -14 6 -20 -8 -38 17 -34 45 2 17 9 23 26 22 12 0 22 3 22 8 0
12 -44 10 -58 -4z"/>
<path d="M2512 1088 c-7 -7 -12 -24 -12 -38 0 -14 5 -31 12 -38 14 -14 44 -16
52 -4 3 5 -4 8 -16 8 -12 -1 -23 5 -25 12 -3 7 5 12 21 12 31 0 44 23 26 45
-15 18 -42 19 -58 3z m42 -13 c4 -10 -1 -15 -14 -15 -20 0 -26 11 -13 23 10
11 20 8 27 -8z"/>
<path d="M4571 958 c0 -75 12 -100 19 -38 4 32 10 46 23 48 14 3 17 -4 17 -37
0 -22 5 -43 11 -46 7 -5 9 9 7 42 -3 45 -5 48 -30 48 -23 -1 -28 4 -28 22 0
13 -4 23 -9 23 -5 0 -10 -28 -10 -62z"/>
<path d="M4782 955 c5 -84 22 -84 26 0 2 54 0 65 -13 65 -14 0 -16 -10 -13
-65z"/>
<path d="M4213 973 c-9 -3 -13 -26 -12 -66 1 -45 3 -55 9 -37 4 14 5 37 3 51
-5 27 18 55 37 44 16 -10 12 -57 -7 -71 -15 -11 -16 -13 -2 -14 32 0 49 42 33
84 -6 15 -36 20 -61 9z"/>
<path d="M4303 964 c-4 -10 4 -24 22 -38 25 -20 26 -23 10 -30 -11 -4 -22 -1
-27 6 -7 10 -9 9 -5 -2 5 -21 41 -24 58 -4 12 14 10 19 -14 38 -32 26 -35 40
-7 33 11 -3 20 -1 20 4 0 16 -50 10 -57 -7z"/>
<path d="M4380 971 c0 -5 7 -25 15 -46 9 -20 13 -46 9 -57 -4 -14 -2 -19 7
-16 14 5 52 106 45 123 -2 5 -10 -6 -19 -25 l-15 -35 -12 33 c-11 29 -30 44
-30 23z"/>
<path d="M4492 968 c-7 -7 -12 -24 -12 -38 0 -14 5 -31 12 -38 15 -15 58 -16
58 -1 0 6 -6 9 -14 6 -20 -8 -38 17 -34 45 2 17 9 23 26 22 12 0 22 3 22 8 0
12 -44 10 -58 -4z"/>
<path d="M4678 955 c-9 -19 -8 -29 6 -50 21 -31 51 -32 71 -1 24 36 5 76 -35
76 -23 0 -33 -6 -42 -25z m67 -4 c8 -26 -4 -51 -25 -51 -23 0 -33 26 -20 51
13 24 37 25 45 0z"/>
<path d="M4843 973 c-16 -6 -17 -65 -1 -81 19 -19 45 -14 62 10 20 28 20 43 0
62 -15 16 -37 19 -61 9z m53 -27 c7 -30 -1 -46 -26 -46 -23 0 -33 26 -20 51
15 27 38 24 46 -5z"/>
<path d="M4943 968 c-5 -7 -9 -35 -9 -63 1 -49 2 -50 33 -53 38 -4 63 27 39
47 -11 9 -12 18 -3 41 6 17 15 30 18 30 11 0 33 -71 31 -97 -3 -41 15 -24 37
33 23 62 25 74 12 74 -5 0 -12 -13 -16 -30 -4 -16 -10 -30 -15 -30 -5 0 -11
14 -15 30 -6 28 -9 30 -55 30 -26 0 -52 -6 -57 -12z m43 -9 c8 -14 -11 -33
-25 -25 -11 7 -4 36 9 36 5 0 12 -5 16 -11z m14 -78 c0 -12 -29 -23 -41 -15
-18 10 -9 24 16 24 14 0 25 -4 25 -9z"/>
<path d="M3120 790 c0 -76 17 -97 22 -27 2 29 8 42 18 42 10 0 16 -13 18 -42
4 -54 22 -57 22 -4 0 41 -20 67 -45 57 -11 -4 -15 1 -15 19 0 14 -4 25 -10 25
-6 0 -10 -30 -10 -70z"/>
<path d="M3820 790 c0 -76 17 -97 22 -27 2 29 8 42 18 42 10 0 16 -13 18 -42
4 -53 22 -57 22 -5 0 48 -12 66 -39 59 -17 -4 -21 -1 -21 19 0 13 -4 24 -10
24 -6 0 -10 -30 -10 -70z"/>
<path d="M2960 785 l0 -65 38 1 c30 2 32 3 10 6 -22 3 -28 10 -28 29 0 17 5
24 20 24 11 0 20 5 20 10 0 6 -11 10 -24 10 -36 0 -29 33 9 41 29 6 29 6 -7 8
l-38 1 0 -65z"/>
<path d="M3052 824 c-7 -8 -8 -15 -2 -19 6 -3 10 -24 10 -46 0 -32 3 -39 19
-39 18 0 19 2 5 28 -18 34 -18 49 1 59 12 7 12 10 -3 19 -13 8 -20 8 -30 -2z"/>
<path d="M3227 814 c-1 -2 -1 -23 1 -48 4 -51 22 -53 22 -2 0 18 3 36 7 39 13
13 33 -16 33 -49 0 -19 5 -34 10 -34 13 0 13 56 0 81 -8 13 -20 19 -41 17 -16
-1 -31 -3 -32 -4z"/>
<path d="M3342 808 c-7 -7 -12 -24 -12 -38 0 -31 17 -50 45 -50 28 0 45 19 45
50 0 31 -17 50 -45 50 -12 0 -26 -5 -33 -12z m46 -10 c15 -15 15 -41 1 -55
-18 -18 -39 -3 -39 26 0 40 15 52 38 29z"/>
<path d="M3447 813 c-3 -5 -6 -33 -8 -63 -3 -46 -1 -55 14 -58 51 -10 95 33
47 45 -18 5 -19 8 -7 22 8 9 17 26 20 39 5 19 1 22 -28 22 -19 0 -36 -3 -38
-7z m41 -26 c2 -10 -3 -17 -12 -17 -10 0 -16 9 -16 21 0 24 23 21 28 -4z m12
-66 c0 -6 -5 -13 -10 -16 -15 -9 -43 3 -35 15 8 13 45 13 45 1z"/>
<path d="M3540 770 c0 -27 5 -50 10 -50 6 0 10 15 10 34 0 19 7 42 16 50 14
15 13 16 -10 16 -24 0 -26 -3 -26 -50z"/>
<path d="M3615 810 c-4 -6 3 -9 16 -7 31 3 35 -19 4 -27 -20 -5 -26 -12 -23
-29 2 -17 11 -23 39 -25 36 -3 36 -3 35 35 -1 21 -5 44 -10 51 -9 14 -52 16
-61 2z m43 -61 c-2 -6 -8 -10 -13 -10 -5 0 -11 4 -13 10 -2 6 4 11 13 11 9 0
15 -5 13 -11z"/>
<path d="M3710 753 c0 -35 4 -63 10 -63 6 0 10 8 10 19 0 14 6 17 25 13 20 -3
27 1 35 22 6 16 6 35 0 51 -8 20 -16 24 -45 23 l-35 -1 0 -64z m59 43 c16 -19
-3 -68 -24 -60 -16 6 -19 31 -9 58 8 20 18 20 33 2z"/>
<path d="M3920 809 c0 -9 7 -33 15 -52 8 -20 12 -43 9 -51 -3 -9 -1 -16 4 -16
10 0 52 98 52 120 0 23 -19 7 -25 -20 -7 -30 -25 -42 -25 -17 0 7 -7 22 -15
33 -12 16 -14 16 -15 3z"/>
</g>
</svg>
